<svg xmlns="http://www.w3.org/2000/svg" width="600" height="400" viewBox="0 0 600 400">
  <defs>
    <linearGradient id="bg3" x1="0%" y1="0%" x2="100%" y2="100%">
      <stop offset="0%" style="stop-color:#6c63ff;stop-opacity:1" />
      <stop offset="100%" style="stop-color:#a78bfa;stop-opacity:1" />
    </linearGradient>
  </defs>
  <rect width="600" height="400" fill="#0d0d20"/>
  <!-- Team / collaboration scene -->
  <!-- Central hub -->
  <circle cx="300" cy="200" r="40" fill="url(#bg3)" opacity="0.2" stroke="#6c63ff" stroke-width="1.5"/>
  <text x="300" y="205" font-family="'Space Grotesk', sans-serif" font-size="16" font-weight="600" fill="#6c63ff" text-anchor="middle" opacity="0.8">TEAM</text>
  <!-- Connected nodes -->
  <line x1="300" y1="160" x2="300" y2="80" stroke="#6c63ff" stroke-width="1" opacity="0.3" stroke-dasharray="4 4"/>
  <circle cx="300" cy="70" r="24" fill="#1a1a2e" stroke="#00d4ff" stroke-width="1.5"/>
  <text x="300" y="75" font-family="'Inter', sans-serif" font-size="10" fill="#00d4ff" text-anchor="middle">API</text>

  <line x1="340" y1="200" x2="450" y2="130" stroke="#6c63ff" stroke-width="1" opacity="0.3" stroke-dasharray="4 4"/>
  <circle cx="460" cy="120" r="24" fill="#1a1a2e" stroke="#a78bfa" stroke-width="1.5"/>
  <text x="460" y="125" font-family="'Inter', sans-serif" font-size="10" fill="#a78bfa" text-anchor="middle">DB</text>

  <line x1="340" y1="210" x2="460" y2="260" stroke="#6c63ff" stroke-width="1" opacity="0.3" stroke-dasharray="4 4"/>
  <circle cx="470" cy="270" r="24" fill="#1a1a2e" stroke="#f472b6" stroke-width="1.5"/>
  <text x="470" y="275" font-family="'Inter', sans-serif" font-size="10" fill="#f472b6" text-anchor="middle">UI</text>

  <line x1="260" y1="210" x2="140" y2="270" stroke="#6c63ff" stroke-width="1" opacity="0.3" stroke-dasharray="4 4"/>
  <circle cx="130" cy="280" r="24" fill="#1a1a2e" stroke="#fbbf24" stroke-width="1.5"/>
  <text x="130" y="285" font-family="'Inter', sans-serif" font-size="10" fill="#fbbf24" text-anchor="middle">CI/CD</text>

  <line x1="260" y1="190" x2="130" y2="130" stroke="#6c63ff" stroke-width="1" opacity="0.3" stroke-dasharray="4 4"/>
  <circle cx="120" cy="120" r="24" fill="#1a1a2e" stroke="#34d399" stroke-width="1.5"/>
  <text x="120" y="125" font-family="'Inter', sans-serif" font-size="10" fill="#34d399" text-anchor="middle">Auth</text>

  <line x1="300" y1="240" x2="300" y2="320" stroke="#6c63ff" stroke-width="1" opacity="0.3" stroke-dasharray="4 4"/>
  <circle cx="300" cy="330" r="24" fill="#1a1a2e" stroke="#fb923c" stroke-width="1.5"/>
  <text x="300" y="335" font-family="'Inter', sans-serif" font-size="10" fill="#fb923c" text-anchor="middle">Test</text>

  <!-- Decorative dots -->
  <circle cx="50" cy="50" r="3" fill="#6c63ff" opacity="0.3"/>
  <circle cx="550" cy="50" r="3" fill="#00d4ff" opacity="0.3"/>
  <circle cx="50" cy="370" r="3" fill="#a78bfa" opacity="0.3"/>
  <circle cx="550" cy="370" r="3" fill="#6c63ff" opacity="0.3"/>
  <text x="300" y="388" font-family="'Inter', sans-serif" font-size="11" fill="#64748b" text-anchor="middle" opacity="0.5">System Architecture</text>
</svg>